<svg width="30" height="30" viewBox="0 0 30 30" fill="none" xmlns="http://www.w3.org/2000/svg">
<path d="M15 19C17.2091 19 19 17.2091 19 15C19 12.7909 17.2091 11 15 11C12.7909 11 11 12.7909 11 15C11 17.2091 12.7909 19 15 19Z" fill="#B5B5B5"/>
<path d="M11.25 2.5L8.9625 5H5C3.625 5 2.5 6.125 2.5 7.5V22.5C2.5 23.875 3.625 25 5 25H25C26.375 25 27.5 23.875 27.5 22.5V7.5C27.5 6.125 26.375 5 25 5H21.0375L18.75 2.5H11.25ZM15 21.25C11.55 21.25 8.75 18.45 8.75 15C8.75 11.55 11.55 8.75 15 8.75C18.45 8.75 21.25 11.55 21.25 15C21.25 18.45 18.45 21.25 15 21.25Z" fill="#B5B5B5"/>
</svg>
