<svg width="30" height="30" viewBox="0 0 30 30" fill="none" xmlns="http://www.w3.org/2000/svg">
<path d="M29.9821 7.12347L28.2879 16.7704C28.1481 17.5673 27.7436 18.2881 27.1447 18.8072C26.5459 19.3263 25.7906 19.6108 25.0106 19.6112H8.90159L9.51262 23.072H24.4412C25.1004 23.072 25.7447 23.2749 26.2928 23.6552C26.8409 24.0355 27.2681 24.576 27.5204 25.2084C27.7726 25.8407 27.8386 26.5366 27.71 27.2079C27.5814 27.8792 27.264 28.4959 26.7979 28.9799C26.3318 29.4639 25.7379 29.7935 25.0914 29.927C24.4449 30.0606 23.7747 29.992 23.1657 29.7301C22.5567 29.4682 22.0362 29.0246 21.67 28.4555C21.3038 27.8863 21.1083 27.2172 21.1083 26.5328C21.1084 26.1394 21.1742 25.7491 21.3027 25.3792H13.1371C13.2657 25.7491 13.3314 26.1394 13.3316 26.5328C13.3326 27.0911 13.2034 27.6415 12.9552 28.1368C12.707 28.6321 12.347 29.0577 11.906 29.3773C11.465 29.6968 10.9562 29.9008 10.4228 29.9719C9.88943 30.0429 9.34742 29.9789 8.84304 29.7853C8.33866 29.5917 7.88689 29.2742 7.52628 28.86C7.16567 28.4458 6.90694 27.9471 6.77216 27.4066C6.63739 26.866 6.63057 26.2997 6.7523 25.7558C6.87403 25.2119 7.12069 24.7067 7.47123 24.2832L3.62452 2.3072H1.11096C0.816317 2.3072 0.533739 2.18566 0.325393 1.96931C0.117047 1.75297 0 1.45955 0 1.1536C0 0.847645 0.117047 0.554223 0.325393 0.337881C0.533739 0.121539 0.816317 0 1.11096 0H3.62452C4.14311 0.00117796 4.64498 0.190681 5.04317 0.535679C5.44136 0.880677 5.71079 1.35944 5.80478 1.88902L6.48525 5.76799H28.885C29.0472 5.76834 29.2073 5.80603 29.3538 5.87833C29.5003 5.95064 29.6295 6.05578 29.7321 6.18617C29.8396 6.31246 29.9179 6.46249 29.9612 6.62489C30.0045 6.78728 30.0117 6.95778 29.9821 7.12347Z" fill="#BF9270"/>
</svg>
