<svg width="30" height="30" viewBox="0 0 30 30" fill="none" xmlns="http://www.w3.org/2000/svg">
<path d="M11.3767 10.8C11.3767 10.3226 11.5402 9.86477 11.8312 9.52721C12.1223 9.18964 12.517 9 12.9286 9H21.2057C21.6173 9 22.012 9.18964 22.303 9.52721C22.5941 9.86477 22.7576 10.3226 22.7576 10.8C22.7576 11.2774 22.5941 11.7352 22.303 12.0728C22.012 12.4104 21.6173 12.6 21.2057 12.6H12.9286C12.517 12.6 12.1223 12.4104 11.8312 12.0728C11.5402 11.7352 11.3767 11.2774 11.3767 10.8ZM12.9286 18.6H21.2057C21.6173 18.6 22.012 18.4104 22.303 18.0728C22.5941 17.7352 22.7576 17.2774 22.7576 16.8C22.7576 16.3226 22.5941 15.8648 22.303 15.5272C22.012 15.1896 21.6173 15 21.2057 15H12.9286C12.517 15 12.1223 15.1896 11.8312 15.5272C11.5402 15.8648 11.3767 16.3226 11.3767 16.8C11.3767 17.2774 11.5402 17.7352 11.8312 18.0728C12.1223 18.4104 12.517 18.6 12.9286 18.6ZM30 24.6C30 26.0322 29.5095 27.4057 28.6363 28.4184C27.7632 29.4311 26.579 30 25.3442 30H10.8594C9.62456 30 8.44033 29.4311 7.56719 28.4184C6.69406 27.4057 6.20353 26.0322 6.20353 24.6V5.4C6.20353 4.92261 6.04003 4.46477 5.74898 4.12721C5.45793 3.78964 5.06319 3.6 4.65159 3.6C4.23999 3.6 3.84525 3.78964 3.5542 4.12721C3.26315 4.46477 3.09965 4.92261 3.09965 5.4C3.09873 5.84418 3.24184 6.27251 3.50057 6.6C3.77497 6.95605 3.91618 7.42395 3.89314 7.90076C3.8701 8.37757 3.68469 8.82424 3.3777 9.1425C3.07072 9.46076 2.6673 9.62454 2.2562 9.59782C1.8451 9.5711 1.45998 9.35605 1.18558 9C0.586642 8.22333 0.194235 7.26226 0.0556932 6.23272C-0.0828483 5.20317 0.0383935 4.14912 0.404795 3.1977C0.771196 2.24629 1.36711 1.43815 2.12065 0.870753C2.87419 0.303359 3.75318 0.000949456 4.65159 0H22.2403C23.4751 0 24.6593 0.568927 25.5324 1.58162C26.4056 2.59432 26.8961 3.96783 26.8961 5.4V20.4H27.6591C27.8765 20.4009 28.0913 20.4548 28.2896 20.5582C28.4879 20.6615 28.6653 20.8121 28.8102 21C29.5752 21.9893 29.9988 23.2711 30 24.6ZM11.7517 21.465C11.8771 21.149 12.0775 20.881 12.3294 20.6924C12.5814 20.5038 12.8745 20.4024 13.1743 20.4H23.7922V5.4C23.7922 4.92261 23.6287 4.46477 23.3377 4.12721C23.0466 3.78964 22.6519 3.6 22.2403 3.6H9.03583C9.21797 4.17648 9.30994 4.78604 9.30742 5.4V24.6C9.30742 25.0774 9.47093 25.5352 9.76197 25.8728C10.053 26.2104 10.4478 26.4 10.8594 26.4C11.271 26.4 11.6657 26.2104 11.9568 25.8728C12.2478 25.5352 12.4113 25.0774 12.4113 24.6C12.4122 24.1558 12.2691 23.7275 12.0104 23.4C11.8137 23.139 11.6849 22.8186 11.6392 22.476C11.5934 22.1334 11.6324 21.7828 11.7517 21.465ZM26.8961 24.6C26.8986 24.3952 26.8679 24.1917 26.8056 24H15.4893C15.5023 24.195 15.5152 24.405 15.5152 24.6C15.5177 25.214 15.4257 25.8235 15.2436 26.4H25.3442C25.7558 26.4 26.1505 26.2104 26.4416 25.8728C26.7326 25.5352 26.8961 25.0774 26.8961 24.6Z" fill="#BF9270"/>
</svg>
