<svg width="34" height="34" viewBox="0 0 34 34" fill="none" xmlns="http://www.w3.org/2000/svg">
<path d="M17 32C25.2843 32 32 25.2843 32 17C32 8.71573 25.2843 2 17 2C8.71573 2 2 8.71573 2 17C2 25.2843 8.71573 32 17 32Z" stroke="#BF9270" stroke-width="3" stroke-linecap="round" stroke-linejoin="round"/>
<path d="M21.6667 11.9993C21.3647 11.4756 20.9261 11.0439 20.3976 10.7503C19.8692 10.4567 19.2708 10.3123 18.6667 10.3327H15.3333C14.4493 10.3327 13.6014 10.6839 12.9763 11.309C12.3512 11.9341 12 12.782 12 13.666C12 14.5501 12.3512 15.3979 12.9763 16.023C13.6014 16.6482 14.4493 16.9993 15.3333 16.9993H18.6667C19.5507 16.9993 20.3986 17.3505 21.0237 17.9757C21.6488 18.6008 22 19.4486 22 20.3327C22 21.2167 21.6488 22.0646 21.0237 22.6897C20.3986 23.3148 19.5507 23.666 18.6667 23.666H15.3333C14.7292 23.6864 14.1308 23.542 13.6024 23.2484C13.0739 22.9548 12.6353 22.5231 12.3333 21.9993M17 8.66602V25.3327" stroke="#BF9270" stroke-width="3" stroke-linecap="round" stroke-linejoin="round"/>
</svg>
