<svg width="20" height="16" viewBox="0 0 20 16" fill="none" xmlns="http://www.w3.org/2000/svg">
<path d="M9.17782 14.569C9.26956 14.7022 9.39231 14.8112 9.53551 14.8864C9.6787 14.9617 9.83805 15.001 9.99981 15.001C10.1616 15.001 10.3209 14.9617 10.4641 14.8864C10.6073 14.8112 10.7301 14.7022 10.8218 14.569L19.8218 1.569C19.926 1.41906 19.9871 1.24343 19.9984 1.06121C20.0098 0.87898 19.971 0.697123 19.8863 0.535394C19.8016 0.373665 19.6741 0.238248 19.5179 0.143858C19.3616 0.049468 19.1824 -0.000286344 18.9998 1.23965e-06H0.999815C0.817658 0.000753649 0.639153 0.0511479 0.483495 0.145764C0.327838 0.24038 0.200917 0.375639 0.116383 0.536994C0.0318493 0.698349 -0.00710004 0.879696 0.00372392 1.06153C0.0145479 1.24337 0.0747356 1.41881 0.177815 1.569L9.17782 14.569Z" fill="#555555"/>
</svg>
