<svg width="30" height="30" viewBox="0 0 30 30" fill="none" xmlns="http://www.w3.org/2000/svg">
<path d="M26.5701 15C26.5701 14.655 26.5547 14.325 26.5239 13.98L29.3933 11.865C30.0103 11.415 30.18 10.575 29.7944 9.915L26.9095 5.07C26.7246 4.75228 26.4254 4.51221 26.0694 4.39593C25.7135 4.27965 25.3259 4.29534 24.9812 4.44L21.6644 5.805C21.0936 5.415 20.492 5.07 19.8595 4.785L19.4121 1.32C19.3195 0.57 18.6562 0 17.8848 0H12.1306C11.3438 0 10.6805 0.57 10.5879 1.32L10.1405 4.785C9.50804 5.07 8.90639 5.415 8.33559 5.805L5.01882 4.44C4.30918 4.14 3.47613 4.41 3.09046 5.07L0.205637 9.93C-0.180035 10.59 -0.0103392 11.415 0.606735 11.88L3.47613 13.995C3.41218 14.6686 3.41218 15.3464 3.47613 16.02L0.606735 18.135C-0.0103392 18.585 -0.180035 19.425 0.205637 20.085L3.09046 24.93C3.47613 25.59 4.30918 25.86 5.01882 25.56L8.33559 24.195C8.90639 24.585 9.50804 24.93 10.1405 25.215L10.5879 28.68C10.6805 29.43 11.3438 30 12.1152 30H17.8694C18.6407 30 19.3041 29.43 19.3967 28.68L19.844 25.215C20.4765 24.93 21.0782 24.585 21.649 24.195L24.9658 25.56C25.6754 25.86 26.5084 25.59 26.8941 24.93L29.7789 20.085C30.1646 19.425 29.9949 18.6 29.3778 18.135L26.5084 16.02C26.5547 15.675 26.5701 15.345 26.5701 15V15ZM15.0617 20.25C12.0843 20.25 9.66231 17.895 9.66231 15C9.66231 12.105 12.0843 9.75 15.0617 9.75C18.0391 9.75 20.4611 12.105 20.4611 15C20.4611 17.895 18.0391 20.25 15.0617 20.25Z" fill="#BF9270"/>
</svg>
