<svg width="20" height="21" viewBox="0 0 20 21" fill="none" xmlns="http://www.w3.org/2000/svg">
<path d="M8 3.5H12C12 2.96957 11.7893 2.46086 11.4142 2.08579C11.0391 1.71071 10.5304 1.5 10 1.5C9.46957 1.5 8.96086 1.71071 8.58579 2.08579C8.21071 2.46086 8 2.96957 8 3.5V3.5ZM6.5 3.5C6.5 3.04037 6.59053 2.58525 6.76642 2.16061C6.94231 1.73597 7.20012 1.35013 7.52513 1.02513C7.85013 0.700121 8.23597 0.442313 8.66061 0.266422C9.08525 0.0905302 9.54037 0 10 0C10.4596 0 10.9148 0.0905302 11.3394 0.266422C11.764 0.442313 12.1499 0.700121 12.4749 1.02513C12.7999 1.35013 13.0577 1.73597 13.2336 2.16061C13.4095 2.58525 13.5 3.04037 13.5 3.5H19.25C19.4489 3.5 19.6397 3.57902 19.7803 3.71967C19.921 3.86032 20 4.05109 20 4.25C20 4.44891 19.921 4.63968 19.7803 4.78033C19.6397 4.92098 19.4489 5 19.25 5H17.93L16.76 17.111C16.6703 18.039 16.238 18.9002 15.5477 19.5268C14.8573 20.1534 13.9583 20.5004 13.026 20.5H6.974C6.04186 20.5001 5.1431 20.153 4.45295 19.5265C3.7628 18.8999 3.33073 18.0388 3.241 17.111L2.07 5H0.75C0.551088 5 0.360322 4.92098 0.21967 4.78033C0.0790175 4.63968 0 4.44891 0 4.25C0 4.05109 0.0790175 3.86032 0.21967 3.71967C0.360322 3.57902 0.551088 3.5 0.75 3.5H6.5ZM8.5 8.25C8.5 8.05109 8.42098 7.86032 8.28033 7.71967C8.13968 7.57902 7.94891 7.5 7.75 7.5C7.55109 7.5 7.36032 7.57902 7.21967 7.71967C7.07902 7.86032 7 8.05109 7 8.25V15.75C7 15.9489 7.07902 16.1397 7.21967 16.2803C7.36032 16.421 7.55109 16.5 7.75 16.5C7.94891 16.5 8.13968 16.421 8.28033 16.2803C8.42098 16.1397 8.5 15.9489 8.5 15.75V8.25ZM12.25 7.5C12.0511 7.5 11.8603 7.57902 11.7197 7.71967C11.579 7.86032 11.5 8.05109 11.5 8.25V15.75C11.5 15.9489 11.579 16.1397 11.7197 16.2803C11.8603 16.421 12.0511 16.5 12.25 16.5C12.4489 16.5 12.6397 16.421 12.7803 16.2803C12.921 16.1397 13 15.9489 13 15.75V8.25C13 8.05109 12.921 7.86032 12.7803 7.71967C12.6397 7.57902 12.4489 7.5 12.25 7.5Z" fill="#BF9270"/>
</svg>
