<svg width="1200" height="400" viewBox="0 0 1200 400" fill="none" xmlns="http://www.w3.org/2000/svg">
<g clip-path="url(#clip0_407_2625)">
<path d="M-8.25609 235.119C-9.21922 221.345 1.16562 209.399 14.9391 208.436L546.493 171.266C560.266 170.303 572.213 180.688 573.176 194.461L581.128 308.183C582.091 321.957 571.706 333.903 557.933 334.866L26.3792 372.036C12.6057 372.999 0.659285 362.615 -0.303851 348.841L-8.25609 235.119Z" fill="#BF9270"/>
<path d="M-19.6886 -54.6121C-18.966 -68.4003 -7.20264 -78.9921 6.58556 -78.2695L1064.46 -22.8286L1198.31 -29.792C1211.65 -30.486 1223.17 -20.5719 1224.48 -7.27945L1242.3 173.387C1242.56 175.951 1242.41 178.538 1241.87 181.058L1200.15 376.544C1197.56 388.691 1186.44 397.093 1174.05 396.271L-14.5019 317.507C-28.1444 316.603 -38.5302 304.907 -37.8146 291.254L-19.6886 -54.6121Z" fill="#EDCDBB"/>
</g>
<defs>
<clipPath id="clip0_407_2625">
<rect width="1200" height="400" fill="white"/>
</clipPath>
</defs>
</svg>
