<svg width="100" height="100" viewBox="0 0 100 100" fill="none" xmlns="http://www.w3.org/2000/svg">
<path d="M11.1111 13.8887C8.16426 13.8887 5.33811 15.0593 3.25437 17.143C1.17063 19.2268 0 22.0529 0 24.9998L0 74.9998C0 77.9466 1.17063 80.7728 3.25437 82.8565C5.33811 84.9403 8.16426 86.1109 11.1111 86.1109H88.8889C91.8357 86.1109 94.6619 84.9403 96.7456 82.8565C98.8294 80.7728 100 77.9466 100 74.9998V24.9998C100 24.9998 100 13.8887 88.8889 13.8887H11.1111Z" fill="#FFAC33"/>
<path d="M0 27.7773H100V41.6662H0V27.7773Z" fill="#292F33"/>
<path d="M11.1113 52.7773H88.8891V69.444H11.1113V52.7773Z" fill="#F4F7F9"/>
<path d="M52.7787 66.6658C48.0482 66.6658 46.276 63.3047 45.9204 61.663C44.401 61.7769 42.9204 62.5047 40.9065 63.7852C38.7815 65.1352 36.3732 66.6658 33.3343 66.6658C30.0093 66.6658 27.9898 64.7908 27.7787 61.1102C27.7704 60.9547 27.8843 60.588 27.8371 60.588C22.676 60.588 18.9426 65.4797 18.9065 65.5297C18.6915 65.8244 18.4204 66.0738 18.1087 66.2635C17.797 66.4531 17.4509 66.5793 17.0904 66.6348C16.7298 66.6903 16.3618 66.674 16.0075 66.5868C15.6532 66.4997 15.3196 66.3434 15.026 66.1269C14.7317 65.9112 14.4829 65.6396 14.2936 65.3277C14.1043 65.0157 13.9784 64.6696 13.9229 64.309C13.8674 63.9483 13.8836 63.5803 13.9704 63.2259C14.0572 62.8716 14.2129 62.5378 14.4287 62.2436C14.6426 61.9519 19.751 55.5547 27.7787 55.5547C33.1593 55.5547 33.4676 59.3741 33.551 60.7991L33.5704 61.1019C34.9204 61.0075 36.3232 60.1186 37.9315 59.0936C40.601 57.3991 43.9121 55.2852 48.3482 56.4214C50.7676 57.0408 51.1454 59.2852 51.2898 60.1325C51.326 60.3436 51.3787 60.6602 51.426 60.7602C51.4454 60.7602 51.8315 61.013 53.0287 61.1214C55.3065 61.3297 57.8093 60.3464 60.4593 59.3075C63.2037 58.2297 66.0426 57.1186 69.101 57.1186C78.5148 57.1186 82.3426 61.6602 82.7482 62.1769C82.9814 62.4633 83.1553 62.7934 83.2594 63.1478C83.3636 63.5022 83.396 63.8738 83.3548 64.2409C83.3136 64.6079 83.1996 64.9631 83.0195 65.2856C82.8394 65.6081 82.5968 65.8914 82.3058 66.119C82.0149 66.3466 81.6815 66.5139 81.3251 66.6111C80.9687 66.7082 80.5965 66.7333 80.2303 66.6849C79.8641 66.6365 79.5113 66.5155 79.1924 66.3291C78.8735 66.1427 78.595 65.8945 78.3732 65.5991C78.3065 65.5241 75.7898 62.6714 69.1037 62.6714C67.0954 62.6714 64.8593 63.5464 62.4898 64.4741C59.6871 65.5741 55.7287 66.6658 52.7787 66.6658V66.6658Z" fill="#8899A6"/>
</svg>
