<svg width="68" height="68" viewBox="0 0 68 68" fill="none" xmlns="http://www.w3.org/2000/svg">
<circle cx="34" cy="34" r="34" fill="#D9D9D9"/>
<path d="M26.1931 26.7974C24.8245 26.9076 20.9594 22.2668 18.5178 25.0254C16.0761 27.7841 21.3289 31.1307 25.9153 32.0126C30.5016 32.8945 36.5661 37.0508 36.5661 46.5394C36.5661 56.028 29.6503 58.7118 27.7274 58.7118C25.8044 58.7118 21.8832 57.1304 21.8832 53.3428C19.5908 53.2693 19.3061 51.7737 21.5999 49.5676C23.8938 47.3614 22.8085 39.9075 20.4913 38.8038C18.1742 37.7 13.9314 40.3484 13.2416 37.089C12.5518 33.8295 19.1952 28.8851 19.1952 28.8851" stroke="black" stroke-linecap="round" stroke-linejoin="round"/>
<path d="M22.8595 44.8854C22.8595 44.8854 23.9421 49.348 22.9553 51.0152C24.4293 51.0152 26.2975 53.0103 28.527 53.8092C31.0029 54.6965 33.7744 54.129 33.7744 48.1708C33.7744 36.8435 22.4133 35.6173 17.0879 36.7455C19.3557 37.4805 20.5615 38.199 21.2896 39.4838" stroke="black" stroke-linecap="round" stroke-linejoin="round"/>
<path d="M32.2378 30.8731C35.8328 30.8731 38.7471 27.9752 38.7471 24.4004C38.7471 20.8257 35.8328 17.9277 32.2378 17.9277C28.6428 17.9277 25.7285 20.8257 25.7285 24.4004C25.7285 27.9752 28.6428 30.8731 32.2378 30.8731Z" stroke="black" stroke-linecap="round" stroke-linejoin="round"/>
<path d="M17.9047 26.4229C14.1533 21.7889 17.2218 16.4199 22.6211 16.4199C27.4291 16.4199 28.0888 19.414 28.0888 19.414" stroke="black" stroke-linecap="round" stroke-linejoin="round"/>
<path d="M21.9004 16.4528C22.1235 14.7461 23.9534 13.2205 26.8576 14.1392C28.6136 12.1168 32.4595 7.18876 41.4843 9.32137C43.4891 9.75258 45.371 10.6261 46.9908 11.8775C48.6106 13.1288 49.927 14.726 50.8429 16.551C51.7587 18.3761 52.2506 20.3824 52.2821 22.4219C52.3137 24.4613 51.8841 26.4817 51.0251 28.3339C47.401 35.6885 43.1869 37.6388 43.1869 37.6388" stroke="black" stroke-linecap="round" stroke-linejoin="round"/>
<path d="M39.265 37.492C41.151 36.2427 46.1548 37.6485 43.887 41.6838C41.3878 46.1341 38.3398 41.4306 38.3398 41.4306" stroke="black" stroke-linecap="round" stroke-linejoin="round"/>
<path d="M40.5276 43.401C38.9318 49.5199 38.5992 61.876 38.5992 61.876M22.5738 55.8606C22.363 57.4624 21.9004 59.5215 21.9004 59.5215M38.747 34.073C41.1148 30.5073 44.1833 28.5938 45.2193 29.5138C46.6468 30.7795 42.0537 34.2391 43.4456 35.14C44.8375 36.041 48.1441 33.0645 48.1441 33.0645M47.0314 17.4136C49.8426 13.5893 52.7784 7.24042 45.6149 10.9844" stroke="black" stroke-linecap="round" stroke-linejoin="round"/>
<path d="M47.8508 22.0477C51.9595 19.5708 56.4664 12.8177 50.0858 10.5M21.0391 39.095C22.0683 39.5414 22.858 38.3152 22.858 38.3152C22.858 38.3152 23.4985 42.085 26.5396 39.8109C27.1555 41.9 27.9808 41.7366 29.2879 41.0494C29.485 42.4961 31.0876 42.1585 32.0389 41.6346M31.8322 50.1324C31.8322 50.1324 28.3066 52.216 26.7532 49.5934C25.1997 46.9709 29.9339 46.1366 30.4266 47.3125C30.9748 47.0252 31.605 46.9318 32.2137 47.0478C32.8223 47.1638 33.3731 47.4822 33.7757 47.9508" stroke="black" stroke-linecap="round" stroke-linejoin="round"/>
<path d="M30.3028 54.1413C30.5142 53.0277 30.4451 51.8794 30.1016 50.7988" stroke="black" stroke-linecap="round" stroke-linejoin="round"/>
<path d="M34.921 28.4653C35.4879 28.4653 35.9475 28.0083 35.9475 27.4445C35.9475 26.8808 35.4879 26.4238 34.921 26.4238C34.3541 26.4238 33.8945 26.8808 33.8945 27.4445C33.8945 28.0083 34.3541 28.4653 34.921 28.4653Z" fill="black"/>
<path d="M23.755 23.7543C24.3219 23.7543 24.7815 23.2973 24.7815 22.7336C24.7815 22.1699 24.3219 21.7129 23.755 21.7129C23.1881 21.7129 22.7285 22.1699 22.7285 22.7336C22.7285 23.2973 23.1881 23.7543 23.755 23.7543Z" fill="black"/>
</svg>
