<svg width="26" height="22" viewBox="0 0 26 22" fill="none" xmlns="http://www.w3.org/2000/svg">
<path d="M24.375 9.4297H5.1025L11.0013 2.57888C11.2771 2.258 11.4098 1.84431 11.3702 1.42882C11.3305 1.01333 11.1219 0.630072 10.79 0.363364C10.4581 0.0966557 10.0303 -0.0316587 9.60062 0.00664891C9.17093 0.0449565 8.77457 0.246748 8.49875 0.567631L0.37375 9.99536C0.319086 10.0703 0.270204 10.1491 0.2275 10.2311C0.2275 10.3096 0.2275 10.3568 0.11375 10.4353C0.0400947 10.6155 0.00152932 10.8073 0 11.001C0.00152932 11.1947 0.0400947 11.3865 0.11375 11.5666C0.11375 11.6452 0.11375 11.6923 0.2275 11.7709C0.270204 11.8528 0.319086 11.9316 0.37375 12.0066L8.49875 21.4343C8.65154 21.6117 8.84286 21.7543 9.05912 21.8521C9.27539 21.9499 9.51127 22.0004 9.75 22C10.1297 22.0007 10.4976 21.8729 10.79 21.6386C10.9545 21.5067 11.0906 21.3447 11.1903 21.1619C11.29 20.9791 11.3514 20.779 11.371 20.5732C11.3906 20.3674 11.3681 20.1599 11.3046 19.9625C11.2412 19.7652 11.1381 19.5819 11.0013 19.4231L5.1025 12.5723H24.375C24.806 12.5723 25.2193 12.4067 25.524 12.1121C25.8288 11.8174 26 11.4177 26 11.001C26 10.5843 25.8288 10.1846 25.524 9.88991C25.2193 9.59524 24.806 9.4297 24.375 9.4297Z" fill="#BF9270"/>
</svg>
