<svg width="375" height="280" viewBox="0 0 375 280" fill="none" xmlns="http://www.w3.org/2000/svg">
<g clip-path="url(#clip0_390_2621)">
<path d="M-21.2561 119.119C-22.2192 105.345 -11.8344 93.3989 1.9391 92.4358L483.763 58.7434C497.536 57.7803 509.482 68.1651 510.446 81.9386L518.398 195.661C519.361 209.434 508.976 221.381 495.203 222.344L13.3792 256.036C-0.394317 256.999 -12.3407 246.615 -13.3039 232.841L-21.2561 119.119Z" fill="#BF9270"/>
<path d="M4.57624 -147.137C6.01947 -160.868 18.321 -170.83 32.0525 -169.387L350.899 -135.875C363.433 -134.557 373.026 -124.117 373.281 -111.517L380.654 253.159C380.966 268.61 367.326 280.64 352.036 278.401L-10.4547 225.307C-23.7243 223.363 -33.0965 211.295 -31.6946 197.957L4.57624 -147.137Z" fill="#EDCDBB"/>
</g>
<defs>
<clipPath id="clip0_390_2621">
<rect width="375" height="280" fill="white"/>
</clipPath>
</defs>
</svg>
