<svg width="470" height="149" viewBox="0 0 470 149" fill="none" xmlns="http://www.w3.org/2000/svg">
<rect y="66.427" width="463.29" height="83" rx="10" transform="rotate(-6 0 66.427)" fill="#FFEDDB"/>
<path d="M176.95 94.4319C177.002 95.566 176.962 96.7769 176.829 98.0645C176.762 99.3451 176.241 100.439 175.263 101.346C174.537 102.093 173.684 102.585 172.704 102.822C171.723 103.059 170.721 103.097 169.699 102.936C168.75 102.835 167.82 102.598 166.909 102.224C165.992 101.784 165.229 101.228 164.622 100.554C162.075 98.0063 159.687 95.3749 157.458 92.6597C155.288 89.8713 153.085 87.0863 150.848 84.3048L141.167 72.5524C139.852 70.8808 138.449 69.0171 136.959 66.9616C135.463 64.8398 133.95 62.8871 132.422 61.1038L136.117 99.1259L136.211 100.021C136.322 101.082 136.235 102.163 135.949 103.266C135.722 104.295 135.216 105.22 134.43 106.04C133.823 106.64 132.999 107.095 131.96 107.406C130.337 107.912 128.934 107.958 127.751 107.546C126.635 107.128 125.696 106.489 124.935 105.63C124.241 104.765 123.699 103.749 123.308 102.584C122.977 101.345 122.815 100.122 122.822 98.9144L122.644 97.2237L122.028 89.4455L120.612 75.0145C120.455 72.8859 120.262 70.7276 120.032 68.5397C119.795 66.2854 119.554 63.998 119.31 61.6775C118.944 58.8335 118.627 55.8168 118.359 52.6273C118.157 49.4309 117.976 46.4334 117.816 43.6348C117.788 42.096 118.017 40.7647 118.502 39.6412C118.67 38.6851 119.283 37.8163 120.34 37.0348C121.021 36.4941 121.918 36.0982 123.031 35.8471C124.21 35.5891 125.241 35.5142 126.124 35.6225C126.47 35.7203 126.819 35.8512 127.171 36.0152C127.516 36.113 127.865 36.2439 128.218 36.408C128.577 36.6383 128.903 36.8722 129.196 37.1095C129.556 37.3399 129.886 37.6069 130.186 37.9105C130.552 38.2072 130.889 38.5405 131.196 38.9104C131.496 39.214 131.796 39.5177 132.096 39.8213C132.336 40.1982 132.574 40.542 132.807 40.8526C133.041 41.1632 133.308 41.4703 133.608 41.7739L134.869 43.2502L161.648 77.0362L160.958 70.4723C160.735 68.3507 160.475 66.1994 160.179 64.0184C159.942 61.7641 159.665 59.4471 159.348 57.0672C159.055 54.2825 158.741 51.2989 158.407 48.1165C158.139 44.927 157.925 41.933 157.765 39.1344C157.646 38.0073 157.842 36.6796 158.351 35.1513C158.592 34.2545 159.083 33.4991 159.823 32.8851C160.562 32.271 161.419 31.8123 162.393 31.5089C163.366 31.2054 164.361 31.1009 165.376 31.1953C166.392 31.2897 167.296 31.5969 168.088 32.1169C168.307 32.2949 168.531 32.5061 168.757 32.7504C168.984 32.9947 169.181 33.2756 169.349 33.5932C169.771 34.4203 170.05 35.1618 170.186 35.8179C170.482 36.7252 170.669 37.5435 170.746 38.2728C171.617 46.5605 172.505 55.0139 173.411 63.6331C174.383 72.2453 175.338 80.6918 176.275 88.9725C176.373 89.9007 176.504 90.8255 176.668 91.7467C176.825 92.6017 176.919 93.4968 176.95 94.4319ZM193.035 58.0513C194.92 56.8477 196.935 55.932 199.081 55.3042C201.22 54.6102 203.365 54.2842 205.514 54.3265C207.723 54.2954 209.871 54.6394 211.957 55.3586C214.037 56.0115 216.026 57.0761 217.924 58.5524C219.829 60.0951 221.354 61.8453 222.498 63.8031C223.642 65.7609 224.545 67.9786 225.208 70.4562C225.654 72.1522 226.253 73.6981 227.003 75.0941C227.753 76.49 228.536 77.8824 229.352 79.2714C230.235 80.6533 231.051 82.0423 231.801 83.4382C232.617 84.8271 233.308 86.2963 233.873 87.8457C234.365 89.3358 234.389 90.8416 233.946 92.3629C233.562 93.811 232.525 94.7914 230.836 95.3041C229.863 95.6075 228.894 95.6422 227.931 95.4083C227.027 95.1011 226.176 94.6543 225.377 94.0679C224.571 93.4153 223.828 92.7225 223.148 91.9896C222.527 91.1834 221.946 90.4401 221.405 89.7595C220.089 91.9088 218.595 93.6411 216.924 94.9564C215.245 96.2054 213.163 97.128 210.679 97.7243C208.585 98.2125 206.57 98.4914 204.633 98.5609C202.696 98.6304 200.603 98.4817 198.352 98.115C195.424 97.6853 192.938 96.673 190.894 95.0779C188.908 93.4097 187.293 91.4343 186.048 89.152C184.862 86.7964 184.089 84.2298 183.73 81.4521C183.371 78.6744 183.414 75.888 183.857 73.093C184.409 69.4152 185.495 66.3516 187.114 63.9022C188.734 61.4529 190.707 59.5025 193.035 58.0513ZM196.744 69.4259C195.914 70.4516 195.299 71.6223 194.901 72.9377C194.503 74.2532 194.311 75.6141 194.325 77.0204C194.405 78.4197 194.684 79.7981 195.162 81.1555C195.64 82.513 196.299 83.6839 197.14 84.668C197.9 85.5266 199.111 86.2037 200.772 86.6995C202.426 87.1289 204.122 87.3194 205.86 87.2708C207.863 87.1944 209.531 86.4828 210.864 85.136C212.263 83.7823 213.234 82.1721 213.775 80.3053C214.375 78.3652 214.535 76.371 214.252 74.3226C213.963 72.2079 213.197 70.3444 211.955 68.7321C211.027 67.556 209.869 66.7393 208.48 66.2819C207.158 65.8176 205.767 65.6621 204.308 65.8154C202.843 65.9024 201.409 66.2878 200.006 66.9715C198.662 67.582 197.575 68.4001 196.744 69.4259ZM291.114 49.6532C291.477 51.8272 291.68 54.085 291.725 56.4264C291.837 58.7609 291.842 61.0396 291.74 63.2623C291.474 67.1112 290.634 70.9199 289.221 74.6883C287.807 78.4567 285.508 81.7818 282.326 84.6637C279.024 87.692 275.138 89.9439 270.668 91.4192C266.191 92.8283 261.708 93.8692 257.221 94.542C255.71 94.8348 254.155 95.0318 252.557 95.1327C251.032 95.293 249.523 95.284 248.029 95.1058C246.815 95.0323 245.881 94.7618 245.229 94.2941C244.877 94.13 244.584 93.8927 244.35 93.5821C244.116 93.2715 243.915 92.9574 243.748 92.6398C243.514 92.3292 243.314 92.0151 243.146 91.6976C243.038 91.3067 242.897 90.9194 242.722 90.5355C242.621 90.211 242.524 89.9196 242.429 89.6613C242.395 89.3298 242.363 89.0315 242.335 88.7663L236.367 31.9791C236.318 31.5149 236.273 31.084 236.231 30.6862C236.189 30.2884 236.214 29.8836 236.304 29.4718C236.339 28.5297 236.458 27.7463 236.661 27.1217C236.842 26.2982 237.148 25.6963 237.577 25.3161C237.94 24.9427 238.313 24.6689 238.697 24.4945C239.074 24.2537 239.421 24.0497 239.739 23.8822C240.123 23.7078 240.521 23.666 240.932 23.7568C241.403 23.7743 241.89 23.6226 242.393 23.3016L259.043 21.9538C263.433 21.6265 267.453 22.243 271.102 23.8034C274.745 25.2975 277.947 27.3742 280.706 30.0337C283.466 32.6931 285.734 35.7729 287.509 39.2732C289.278 42.7071 290.48 46.1671 291.114 49.6532ZM274.602 70.4934C275.653 68.3719 276.341 65.987 276.665 63.3385C276.99 60.69 276.98 58.0432 276.635 55.3981C276.283 52.6867 275.643 50.1062 274.716 47.6564C273.781 45.1403 272.612 42.9505 271.21 41.0869C270.128 39.7258 268.809 38.6578 267.253 37.8829C265.697 37.108 263.999 36.5826 262.16 36.3066C260.315 35.9643 258.353 35.8018 256.277 35.8189C254.267 35.829 252.301 35.9352 250.378 36.1372C250.647 38.053 250.875 39.906 251.063 41.6961C251.251 43.4863 251.45 45.3758 251.659 47.3649C251.843 49.7587 252.054 52.0827 252.291 54.337C252.528 56.5912 252.758 58.7792 252.981 60.9008L255.113 81.1891C257.162 80.9068 259.107 80.6017 260.95 80.274C262.851 79.873 264.633 79.2836 266.294 78.5057C268.021 77.7208 269.559 76.7213 270.906 75.5072C272.312 74.2198 273.544 72.5485 274.602 70.4934ZM311.616 42.4709C313.692 41.1801 315.899 40.1772 318.237 39.4622C320.575 38.7473 322.919 38.4004 325.267 38.4217C327.682 38.4361 330.035 38.8255 332.328 39.5901C334.687 40.3477 336.888 41.524 338.933 43.119C340.618 44.4837 342.139 46.2007 343.496 48.2702C344.846 50.2734 345.895 52.2748 346.641 54.2744C348.152 57.8025 348.704 61.4648 348.299 65.2613C347.893 69.0578 346.897 72.6483 345.308 76.0329C344.533 77.5891 343.512 79.0371 342.246 80.3768C341.038 81.6433 339.71 82.7214 338.262 83.611C336.37 84.7482 334.282 85.6046 331.996 86.18C329.717 86.8217 327.473 87.1581 325.265 87.1891C321.266 87.4084 317.647 86.7832 314.409 85.3136C311.237 83.837 308.577 81.804 306.428 79.2144C304.345 76.6179 302.821 73.594 301.855 70.1428C300.948 66.6183 300.797 62.9473 301.401 59.1299C302.044 55.0403 303.231 51.6644 304.962 49.0022C306.752 46.2667 308.97 44.0896 311.616 42.4709ZM316 55.4839C315.103 56.5167 314.462 57.7571 314.078 59.2051C313.694 60.6532 313.516 62.1467 313.544 63.6856C313.564 65.1581 313.821 66.6395 314.312 68.1296C314.863 69.5464 315.6 70.8097 316.521 71.9195C317.288 72.8443 318.569 73.5477 320.362 74.0295C322.156 74.5113 323.988 74.721 325.858 74.6585C327.994 74.5681 329.791 73.8094 331.25 72.3824C332.702 70.8892 333.724 69.1393 334.318 67.133C334.978 65.1196 335.156 62.9893 334.853 60.742C334.549 58.4948 333.737 56.5021 332.414 54.7642C331.479 53.5218 330.251 52.6788 328.73 52.2354C327.268 51.7188 325.741 51.5441 324.15 51.7113C322.618 51.8053 321.118 52.1976 319.648 52.8883C318.172 53.5127 316.956 54.3779 316 55.4839Z" fill="#3D3D3D"/>
</svg>
