<svg width="37" height="48" viewBox="0 0 37 48" fill="none" xmlns="http://www.w3.org/2000/svg">
<path d="M18.5 22.4V28.8H29.1588L29.8732 22.4H18.5ZM15.6538 22.4H7.12677L7.84115 28.8H15.6538V22.4ZM18.5 9.632V19.2H29.5175C28.8805 16.4599 27.4536 14.0346 25.4601 12.3033C23.4666 10.5721 21.0189 9.63266 18.5 9.632ZM15.6538 10.0352C13.6899 10.6075 11.8973 11.7586 10.4609 13.3696C9.0245 14.9806 7.99638 16.9933 7.48254 19.2H15.6538V10.0352ZM18.5 6.432C21.7754 6.43241 24.9505 7.70263 27.4899 10.0285C30.0293 12.3543 31.7778 15.5936 32.4405 19.2H35.5769C35.9543 19.2 36.3163 19.3686 36.5832 19.6686C36.8501 19.9687 37 20.3757 37 20.8C37 21.2243 36.8501 21.6313 36.5832 21.9314C36.3163 22.2314 35.9543 22.4 35.5769 22.4H32.7308V22.496L30.1977 45.1968C30.1117 45.9706 29.7773 46.6825 29.2574 47.1986C28.7375 47.7148 28.0679 47.9998 27.3743 48H9.62569C8.93211 47.9998 8.26246 47.7148 7.74257 47.1986C7.22267 46.6825 6.88831 45.9706 6.80231 45.1968L4.26923 22.496V22.4H1.42308C1.04565 22.4 0.683688 22.2314 0.416809 21.9314C0.149931 21.6313 0 21.2243 0 20.8C0 20.3757 0.149931 19.9687 0.416809 19.6686C0.683688 19.3686 1.04565 19.2 1.42308 19.2H4.55954C5.12395 16.1329 6.47567 13.3191 8.44749 11.1067C10.4193 8.89426 12.9247 7.38027 15.6538 6.752V4.8C15.6538 3.52696 16.1036 2.30606 16.9043 1.40589C17.7049 0.505713 18.7908 0 19.9231 0L25.6154 0C25.9928 0 26.3548 0.168571 26.6217 0.468629C26.8885 0.768687 27.0385 1.17565 27.0385 1.6C27.0385 2.02435 26.8885 2.43131 26.6217 2.73137C26.3548 3.03143 25.9928 3.2 25.6154 3.2H19.9231C19.5457 3.2 19.1837 3.36857 18.9168 3.66863C18.6499 3.96869 18.5 4.37565 18.5 4.8V6.432ZM28.8031 32H8.19692L9.62569 44.8H27.3743L28.8031 32Z" fill="white"/>
</svg>
